# xmcd
#
# Track frame offsets:
#	150
#	14513
#	33906
#	60382
#	78458
#	97412
#	111839
#	127564
#	149697
#	162494
#	183485
#	196986
#	204150
#
# Disc length: 2980 seconds
#
# Revision: 1
# Processed by: cddbd v1.5.2PL0 Copyright (c) Steve Scherf et al.
# Submitted via: audiograbber 1.83.01
#
DISCID=b10ba20d
DTITLE=The Show Ponies - How It All Goes Down
DYEAR=2017
DGENRE=Country
TTITLE0=The Time It Takes
TTITLE1=This World is Not My Home
TTITLE2=Kalamazoo
TTITLE3=Someone to Stay
TTITLE4=Shoulda Showed Him
TTITLE5=Folks Back Home
TTITLE6=Only Lie
TTITLE7=Something Good
TTITLE8=Sweetly
TTITLE9=If You Could Break That Chain
TTITLE10=Don't Call On Me
TTITLE11=Bravery Be Written
TTITLE12=How It All Goes Down
EXTD=
EXTT0=
EXTT1=
EXTT2=
EXTT3=
EXTT4=
EXTT5=
EXTT6=
EXTT7=
EXTT8=
EXTT9=
EXTT10=
EXTT11=
EXTT12=
PLAYORDER=
